<svg width="1392" height="308" viewBox="0 0 1392 308" fill="none" xmlns="http://www.w3.org/2000/svg">
<g style="mix-blend-mode:difference" clip-path="url(#clip0_1_382)">
<path d="M130.273 46.1627C58.3162 46.1627 -8.8834e-06 104.772 -5.723e-06 177.073C-2.5626e-06 249.374 58.3162 308 130.273 308C202.23 308 260.546 249.391 260.546 177.073C260.546 104.755 202.23 46.1461 130.273 46.1461L130.273 46.1627ZM130.273 207.566C113.524 207.566 99.9329 193.923 99.9329 177.073C99.9329 160.223 113.507 146.58 130.273 146.58C147.039 146.58 160.613 160.223 160.613 177.073C160.613 193.923 147.039 207.566 130.273 207.566Z" fill="#2ED1F4"/>
<path d="M278.635 308L296.641 308L296.641 210.324L347.616 210.324L347.616 192.228L296.641 192.228L296.641 72.8167L378.601 72.8167L378.601 54.7205L278.635 54.7205L278.635 308Z" fill="#2ED1F4"/>
<path d="M590.321 308L547.828 308L622.381 58.7585L664.891 58.7585L590.321 308Z" fill="#2ED1F4"/>
<path d="M327.973 166.421C344.176 125.826 379.179 94.1532 420.085 79.8291C430.303 76.3727 441.249 73.7472 451.947 72.6339C501.83 66.5187 563.685 94.3858 603.02 51.663C609.402 44.1187 614.412 34.6635 614.114 24.5935C613.866 6.84633 599.581 -0.598182 585.527 10.8511C565.95 27.784 554.707 54.5211 551.962 80.0618C550.987 90.6137 551.416 101.315 553.351 111.784L551.582 112.166C544.174 80.2944 551.582 45.3152 571.158 19.1098C578.003 10.1698 586.238 0.997089 598.407 0.0166731C619.207 -0.731102 624.332 26.1888 616.694 41.3437C605.235 67.8481 575.672 80.7098 548.49 82.2386C513.801 84.9971 479.278 74.1793 444.87 80.0119C405.833 86.0107 369.953 108.361 346.012 139.817C339.729 148.358 334.256 157.498 329.676 167.136L328.006 166.421L327.973 166.421Z" fill="#2ED1F4"/>
<path d="M492.852 75.06C490.157 96.3799 487.793 117.667 483.957 138.621C480.187 159.426 475.012 180.097 466.629 199.49C463.074 208.031 458.593 216.672 453.567 224.532C439.645 229.816 425.492 234.735 412.165 241.282C394.044 251.086 378.716 265.477 365.853 281.479C361.885 287.179 355.155 295.172 357.222 302.915C358.363 306.604 362.596 308.316 366.15 307.934C387.347 304.826 422.863 272.788 438.14 257.201C447.598 247.979 455.468 237.809 461.999 226.941C463.471 224.515 464.876 222.039 466.199 219.547C489.281 176.408 493.613 123.599 494.654 75.1929L492.836 75.0434L492.852 75.06ZM408.991 272.921C396.97 282.675 384.437 292.812 370.301 298.877C368.366 299.558 366.448 300.29 364.547 300.09C364.53 297.78 366.2 294.789 367.605 292.38C371.607 285.783 376.716 279.867 381.974 274.151C391.845 263.798 402.526 253.911 415.075 247.015C425.723 241.498 436.9 237.078 448.078 232.641C437.132 247.746 423.144 260.824 409.007 272.938L408.991 272.921Z" fill="#2ED1F4"/>
<path d="M541.529 189.602L538.47 191.331C535.395 185.681 533.196 179.599 531.939 173.351C521.291 188.738 507.435 201.932 491.579 212.002C482.188 217.968 472.184 222.671 462.016 226.941C463.487 224.515 464.893 222.039 466.216 219.547C474.169 216.256 481.973 212.634 489.363 208.33C505.699 198.742 520.068 185.697 531.41 170.343C530.12 162.184 530.385 153.792 532.27 145.799L534.056 146.182C532.7 153.144 532.584 160.306 533.642 167.285C534.155 166.571 534.634 165.856 535.13 165.125L536.668 166.089C535.858 167.452 535.015 168.798 534.122 170.127C535.477 176.99 537.974 183.62 541.529 189.602Z" fill="#2ED1F4"/>
<path d="M872.511 90.4475C799.413 21.6024 678.747 72.3181 681.045 173.799C684.252 266.607 795.131 295.687 845.412 225.379L886.053 270.761C876.314 279.934 865.319 287.793 853.381 293.776C793.659 324.617 716.61 303.746 681.59 246.334C622.514 151.433 703.597 30.26 813.203 54.4214C836.417 59.7389 857.696 72.152 873.669 89.2843L872.511 90.4475Z" fill="#2ED1F4"/>
<path d="M969.484 74.9602C969.484 55.3205 953.643 39.3994 934.101 39.3994C914.56 39.3994 898.718 55.3206 898.718 74.9603C898.718 94.5999 914.56 110.521 934.101 110.521C953.643 110.521 969.484 94.5999 969.484 74.9602Z" fill="#2ED1F4"/>
<path d="M959.547 136.444L908.672 136.444L908.672 308L959.547 308L959.547 136.444Z" fill="#2ED1F4"/>
<path d="M1305.28 287.96L1305.28 46.1626L1247.49 46.1626L1247.49 308L1305.28 308L1392 308L1392 287.96L1305.28 287.96Z" fill="#2ED1F4"/>
<path d="M1187.14 282.16C1183.78 281.246 1180.91 280.947 1181.22 270.944C1181.54 260.94 1199.94 213.149 1202.25 203.877C1206.97 184.634 1215.71 168.798 1218.94 148.774C1219.47 143.905 1220.8 138.355 1218.82 133.087C1215.17 124.795 1197.36 129.166 1193.8 137.325C1191.59 142.094 1189.17 146.813 1185.75 150.868C1174.01 165.707 1160.72 179.466 1146.96 192.876C1133.09 206.236 1118.61 218.948 1104.02 232.425C1097.49 238.324 1090.76 245.669 1083.75 250.97C1070.59 261.123 1057.94 264.014 1041.57 264.114C1037.51 264.031 1033.84 262.701 1030.23 260.741C1028.68 259.843 1027.07 258.796 1025.59 257.7C1022.72 255.058 1020.54 251.634 1020.05 247.563L1020.38 245.985C1020.36 246.068 1020.36 246.051 1020.34 246.101L1020.28 246.267C1020.23 246.367 1020.24 246.3 1020.21 246.333C1020.16 246.383 1020.18 246.234 1020.15 246.167C1020.15 245.968 1020.15 245.719 1020.18 245.386C1024.97 220.677 1046.04 198.127 1066.85 184.169C1075.72 178.336 1085.42 173.6 1095.56 169.911C1106.12 166.172 1116.8 163.613 1127.5 159.808C1138.38 155.969 1148.5 151.383 1159.28 147.411C1164.72 145.301 1170.38 142.825 1176.05 139.468C1184.36 134.35 1191.44 127.354 1197.33 119.827C1207.38 106.167 1212.92 89.2843 1212.12 71.7863C1211.41 51.6961 1195.9 34.8463 1175.09 43.4374C1173.09 44.4012 1169.15 46.2125 1167.17 47.2427C1159.33 51.397 1155.51 54.5044 1143.71 60.1875C1134.6 64.5745 1125.98 60.9021 1118.97 53.6403C1114.54 49.403 1111.02 44.451 1105.11 41.759C1099.03 39.0172 1086.15 42.8724 1080.23 44.7668C1075.52 46.2457 1075.42 46.3454 1070.67 47.9905C1034.7 59.2902 1006.41 86.0938 995.641 123.067C991.839 135.696 987.474 156.385 1014.39 149.688C1022.2 147.744 1032.83 144.354 1036.27 130.046C1043.74 108.527 1043.19 95.765 1054.4 81.0421C1060.51 72.6172 1067 64.3252 1075.12 57.562C1079.26 54.0225 1083.87 51.1312 1088.78 48.8878C1095.49 45.4148 1103.13 44.9495 1107.83 51.8291C1113.07 59.3567 1115.35 68.5792 1122.44 75.359C1132.99 85.9442 1150.65 87.9216 1164.03 84.5484C1169.86 83.0528 1175.34 80.743 1180.51 78.184C1180.81 87.34 1179.06 97.8421 1175.37 106.234C1172.84 113.163 1168.75 119.262 1164.36 125.128C1161.5 129.033 1157.61 132.489 1153.36 135.846C1135.7 149.372 1114.16 155.005 1093 160.888C1071.7 167.152 1050.47 174.315 1030.58 185.714C1010.47 196.814 989.573 217.985 984.497 238.673C974.924 274.982 1005.48 302.815 1040.27 302.267C1064.84 301.469 1088.58 292.729 1106.34 275.048C1113.73 268.019 1119.63 260.259 1126.44 252.714C1139.49 237.942 1171.04 178.319 1183.75 163.131C1178.51 176.009 1155.33 234.618 1153.51 249.192C1149.23 281.861 1176.81 304.593 1209.31 307.717C1233.95 310.094 1237.19 297.049 1233.9 283.689C1230.73 270.777 1209.54 282.758 1197.03 283.024C1189.16 283.19 1190.45 283.074 1187.09 282.177L1187.14 282.16Z" fill="#2ED1F4"/>
<path d="M1020.46 245.486L1020.36 245.985C1020.36 245.985 1020.36 245.985 1020.36 245.951L1020.46 245.486Z" fill="#2ED1F4"/>
</g>
<defs>
<clipPath id="clip0_1_382">
<rect width="308" height="1392" fill="white" transform="translate(0 308) rotate(-90)"/>
</clipPath>
</defs>
</svg>
