<svg width="1416" height="471" viewBox="0 0 1416 471" fill="none" xmlns="http://www.w3.org/2000/svg">
<g style="mix-blend-mode:difference" clip-path="url(#clip0_1_399)">
<path d="M199.247 70.5929C89.192 70.5929 -1.35847e-05 160.219 -8.75173e-06 270.784C-3.91878e-06 381.349 89.192 471 199.247 471C309.302 471 398.494 381.374 398.494 270.784C398.494 160.193 309.302 70.5675 199.247 70.5675L199.247 70.5929ZM199.247 317.414C173.63 317.414 152.843 296.551 152.843 270.784C152.843 245.017 173.604 224.154 199.247 224.154C224.889 224.154 245.651 245.017 245.651 270.784C245.651 296.551 224.889 317.414 199.247 317.414Z" fill="#2ED1F4"/>
<path d="M426.159 471L453.698 471L453.698 321.632L531.662 321.632L531.662 293.959L453.698 293.959L453.698 111.353L579.052 111.353L579.052 83.6798L426.159 83.6798L426.159 471Z" fill="#2ED1F4"/>
<path d="M902.869 471L837.878 471L951.904 89.8547L1016.92 89.8547L902.869 471Z" fill="#2ED1F4"/>
<path d="M501.62 254.495C526.402 192.415 579.938 143.981 642.501 122.076C658.129 116.791 674.87 112.776 691.231 111.073C767.526 101.722 862.13 144.337 922.291 79.0041C932.052 67.4673 939.715 53.0082 939.26 37.6089C938.88 10.4696 917.031 -0.914755 895.536 16.5937C865.595 42.4879 848.398 83.3748 844.201 122.432C842.709 138.568 843.366 154.933 846.325 170.942L843.619 171.527C832.29 122.788 843.619 69.2969 873.56 29.2231C884.03 15.5518 896.623 1.52477 915.236 0.025494C947.048 -1.11802 954.888 40.0484 943.204 63.2236C925.68 103.755 880.464 123.423 838.89 125.761C785.835 129.979 733.033 113.436 680.408 122.356C620.702 131.529 565.827 165.708 529.209 213.811C519.6 226.873 511.229 240.849 504.224 255.588L501.67 254.495L501.62 254.495Z" fill="#2ED1F4"/>
<path d="M753.795 114.783C749.673 147.386 746.057 179.938 740.19 211.982C734.424 243.797 726.509 275.409 713.687 305.064C708.25 318.125 701.397 331.339 693.71 343.359C672.417 351.439 650.77 358.961 630.388 368.973C602.672 383.966 579.229 405.972 559.555 430.443C553.486 439.16 543.194 451.382 546.355 463.224C548.099 468.865 554.573 471.483 560.01 470.898C592.43 466.146 646.749 417.153 670.116 393.317C684.581 379.214 696.618 363.662 706.607 347.043C708.857 343.333 711.007 339.547 713.03 335.735C748.332 269.767 754.958 189.01 756.551 114.987L753.77 114.758L753.795 114.783ZM625.532 417.357C607.148 432.273 587.979 447.774 566.358 457.049C563.399 458.091 560.465 459.209 557.557 458.904C557.532 455.372 560.086 450.798 562.236 447.113C568.355 437.025 576.169 427.979 584.211 419.237C599.308 403.406 615.645 388.286 634.838 377.74C651.124 369.304 668.219 362.544 685.314 355.759C668.573 378.858 647.179 398.857 625.558 417.382L625.532 417.357Z" fill="#2ED1F4"/>
<path d="M828.244 289.944L823.565 292.587C818.862 283.947 815.498 274.646 813.576 265.092C797.291 288.622 776.099 308.799 751.848 324.198C737.484 333.321 722.184 340.513 706.632 347.043C708.883 343.333 711.032 339.547 713.055 335.735C725.219 330.704 737.155 325.164 748.459 318.583C773.444 303.92 795.419 283.972 812.767 260.492C810.795 248.015 811.199 235.182 814.082 222.959L816.813 223.544C814.74 234.191 814.563 245.144 816.181 255.816C816.965 254.724 817.698 253.631 818.457 252.513L820.809 253.987C819.57 256.071 818.28 258.129 816.915 260.162C818.988 270.657 822.807 280.796 828.244 289.944Z" fill="#2ED1F4"/>
<path d="M1334.47 138.314C1222.67 33.0348 1038.11 110.59 1041.63 265.778C1046.53 407.7 1216.12 452.17 1293.02 344.655L1355.18 414.053C1340.28 428.08 1323.47 440.1 1305.21 449.248C1213.87 496.411 1096.02 464.495 1042.46 376.698C952.106 231.574 1076.12 46.2741 1243.76 83.2223C1279.26 91.3539 1311.81 110.336 1336.24 136.535L1334.47 138.314Z" fill="#2ED1F4"/>
<path d="M1482.78 114.631C1482.78 84.5973 1458.55 60.2504 1428.66 60.2504C1398.78 60.2504 1374.55 84.5973 1374.55 114.631C1374.55 144.664 1398.78 169.011 1428.66 169.011C1458.55 169.011 1482.78 144.664 1482.78 114.631Z" fill="#2ED1F4"/>
<path d="M1467.58 208.653L1389.77 208.653L1389.77 471L1467.58 471L1467.58 208.653Z" fill="#2ED1F4"/>
</g>
<defs>
<clipPath id="clip0_1_399">
<rect width="471" height="2129" fill="white" transform="translate(0 471) rotate(-90)"/>
</clipPath>
</defs>
</svg>
